<?xml version="1.0" standalone="no"?>
<!DOCTYPE svg PUBLIC "-//W3C//DTD SVG 20010904//EN"
 "http://www.w3.org/TR/2001/REC-SVG-20010904/DTD/svg10.dtd">
<svg version="1.0" xmlns="http://www.w3.org/2000/svg"
 width="512.000000pt" height="512.000000pt" viewBox="0 0 512.000000 512.000000"
 preserveAspectRatio="xMidYMid meet">

<g transform="translate(0.000000,512.000000) scale(0.100000,-0.100000)"
fill="#000000" stroke="none">
<path d="M2340 5109 c-536 -20 -1022 -118 -1383 -279 -370 -165 -566 -396
-722 -851 -148 -429 -225 -963 -225 -1549 1 -913 189 -1606 521 -1915 280
-261 848 -438 1594 -495 193 -15 668 -15 855 -1 761 60 1336 239 1614 500 273
258 447 776 502 1496 20 252 14 721 -11 970 -72 728 -256 1288 -514 1568 -114
124 -296 235 -545 332 -424 166 -1045 248 -1686 224z m1096 -2551 l582 -1358
-323 0 -323 0 -45 103 c-24 56 -82 189 -127 295 l-83 192 -565 -2 -566 -3
-125 -290 c-69 -159 -130 -293 -136 -297 -17 -13 -635 -10 -635 3 0 6 262 620
582 1365 l581 1354 300 -2 300 -3 583 -1357z"/>
<path d="M2393 2703 l-161 -378 330 -3 c182 -1 333 0 336 3 5 5 -330 755 -338
755 -3 0 -78 -170 -167 -377z"/>
</g>
</svg>
